<?xml version="1.0" encoding="UTF-8"?> <svg xmlns="http://www.w3.org/2000/svg" width="171" height="78" viewBox="0 0 171 78" fill="none"><path d="M84.1452 13.0516C77.3035 13.6396 70.9953 17.0088 66.6737 22.3806C61.7428 28.5146 59.8977 36.5372 61.6447 44.2604C62.5266 48.1522 64.3716 51.875 66.9731 55.0046C67.6807 55.859 69.2483 57.4318 70.0755 58.1179C72.9982 60.5506 76.1713 62.2163 79.7039 63.174C86.1697 64.9265 93.1745 63.9852 98.9277 60.5833C105.932 56.4467 110.569 49.1589 111.353 41.0494C111.821 36.2107 110.956 31.4321 108.828 27.1157C105.671 20.7097 99.9782 15.9145 93.18 13.9498C91.6559 13.5089 89.8818 13.1879 88.2272 13.0464C87.4598 12.981 84.9234 12.9866 84.1452 13.0516ZM87.6013 14.1348C93.4467 14.494 98.7535 16.8398 102.944 20.9111C106.678 24.5414 109.16 29.2602 110.02 34.3711C110.319 36.1237 110.434 38.5836 110.303 40.3146C109.851 46.2417 107.364 51.6845 103.195 55.8535C101.252 57.7966 99.1996 59.2609 96.7179 60.48C94.2197 61.7044 91.8085 62.4121 88.8803 62.7768C87.7808 62.9128 84.6894 62.9128 83.5735 62.7768C80.6998 62.4176 78.2615 61.7044 75.7631 60.48C73.2813 59.2661 71.2404 57.8074 69.2862 55.8535C65.5199 52.0872 63.0871 47.205 62.3524 41.942C62.0203 39.558 62.0585 36.7385 62.4612 34.3711C63.9471 25.5265 70.239 18.1407 78.675 15.3324C81.5977 14.358 84.6185 13.9553 87.6013 14.1348Z" fill="#010935"></path><path d="M84.7141 15.2559C83.8597 15.3321 82.7873 15.468 82.1561 15.5824C78.4169 16.2682 74.9389 17.8573 71.9237 20.2629C70.9765 21.0196 69.1206 22.8755 68.364 23.8227C67.7599 24.5846 66.7366 26.0816 66.3068 26.8434C66.04 27.3115 65.7188 27.9374 65.7188 27.9864C65.7188 28.0028 74.9552 28.0136 86.2382 28.0136C97.5263 28.0136 106.757 28.0028 106.757 27.9864C106.757 27.9374 106.436 27.3115 106.17 26.8434C105.739 26.0816 104.716 24.5846 104.112 23.8227C103.355 22.8755 101.5 21.0196 100.553 20.2629C97.1344 17.5363 93.1939 15.8871 88.8232 15.3536C88.1538 15.2722 85.3073 15.2069 84.7141 15.2559Z" fill="#010935"></path><path d="M64.9601 29.6038C63.768 32.4778 63.1477 35.863 63.2346 39.0636C63.3163 42.133 63.9151 44.9034 65.096 47.7447L65.1777 47.9353L86.2466 47.9242L107.316 47.9078L107.561 47.3094C109.416 42.7318 109.765 37.4852 108.529 32.6573C108.295 31.7594 107.844 30.3768 107.522 29.6038L107.288 29.0433L106.603 29.0867C105.704 29.1413 78.2786 29.1413 70.9143 29.0867L65.1941 29.0433L64.9601 29.6038ZM106.75 30.6926C107.588 33.022 108.007 35.0848 108.116 37.4633C108.257 40.4131 107.822 43.3362 106.826 46.0954L106.575 46.7923H65.9452L65.8635 46.6397C65.7275 46.3729 65.2323 44.8492 65.0418 44.0925C63.9043 39.6676 64.1384 35.1119 65.7331 30.6926L65.8962 30.2461H106.586L106.75 30.6926Z" fill="#010935"></path><path d="M71.8604 31.2639L67.8438 31.2803V32.0314C67.849 32.4396 67.8764 32.9348 67.9144 33.1309L67.9797 33.4846L68.3281 33.5228C69.0793 33.6045 69.6071 33.8765 69.8248 34.301C69.9336 34.5079 69.9392 34.6439 69.9827 36.5053C70.0369 39.2103 70.0046 42.4543 69.9173 42.7318C69.8794 42.8462 69.7323 43.0584 69.5908 43.1999C69.2914 43.4993 68.9975 43.6137 68.3716 43.6679L67.9526 43.7006L67.9634 44.7348L67.9797 45.7689L73.5859 45.7634C76.6717 45.7582 79.2463 45.7418 79.3169 45.7199L79.4368 45.6928V41.1754L78.4079 41.1969C77.8421 41.2081 77.3574 41.2296 77.3358 41.2571C77.3139 41.2787 77.276 41.6 77.2541 41.9755C77.1943 42.9224 77.0309 43.2437 76.4975 43.4941C76.269 43.5973 76.1765 43.6029 75.0825 43.5866C74.4403 43.581 73.8961 43.5591 73.8742 43.5483C73.847 43.532 73.8307 42.5959 73.8307 41.4584C73.8307 39.6349 73.8415 39.3953 73.9176 39.3682C73.9667 39.3519 74.7233 39.3355 75.6052 39.3355H77.2051V37.5558L76.9221 37.5179C76.7642 37.5016 76.0078 37.4852 75.2404 37.4852H73.8415L73.8036 35.934C73.7817 35.0848 73.7817 34.203 73.8036 33.9801C73.8362 33.6261 73.8526 33.5718 73.9559 33.5447C74.1572 33.4901 75.8117 33.5065 76.1219 33.5663C76.5903 33.6588 76.8841 33.8274 77.042 34.1105C77.1616 34.3282 77.178 34.437 77.2051 35.0904L77.2322 35.8251L77.7493 35.8686C78.272 35.9121 79.1263 35.885 79.3006 35.8196C79.3878 35.7817 79.393 35.6565 79.3604 33.7624C79.3388 32.6521 79.3117 31.6287 79.2953 31.4816L79.2626 31.226L77.5699 31.2368C76.6338 31.2476 74.0647 31.2587 71.8604 31.2639Z" fill="#010935"></path><path d="M81.8607 31.3456C81.8173 31.5091 81.8173 32.5213 81.8607 33.0384L81.899 33.4574H82.133C82.4922 33.4574 83.1943 33.5663 83.4067 33.6535C83.7823 33.8111 84.0379 34.1543 84.1578 34.655C84.2392 35.0031 84.2938 39.145 84.234 41.1319C84.185 42.9495 84.185 42.9606 83.831 43.2872C83.6025 43.4993 83.2433 43.581 82.5141 43.581H81.9532L81.9153 44.5008C81.8934 45.0015 81.8934 45.4807 81.9153 45.5621L81.948 45.7036H86.1281C88.4301 45.7036 90.319 45.6872 90.3298 45.6601C90.3406 45.6382 90.3353 45.1702 90.319 44.6152L90.2915 43.6081L89.8183 43.5702C89.056 43.5156 88.5553 43.2055 88.2997 42.6393L88.169 42.3563L88.1526 38.8184C88.1474 36.8756 88.1582 35.0414 88.1853 34.7475C88.2288 34.2795 88.2562 34.1866 88.403 33.9853C88.637 33.6588 88.942 33.512 89.3881 33.512C89.5842 33.512 89.8781 33.4957 90.0359 33.4793L90.319 33.4411V31.2966L87.8317 31.2639C86.4599 31.2424 84.5658 31.226 83.6189 31.226H81.8934L81.8607 31.3456Z" fill="#010935"></path><path d="M93.9926 31.2639C92.9477 31.2803 92.7245 31.2966 92.6973 31.362C92.681 31.4055 92.6865 31.8954 92.7029 32.4504L92.7356 33.4574H93.2307C93.9711 33.463 94.3466 33.6372 94.6784 34.1216C94.8474 34.3664 94.8581 34.4099 94.9016 35.074C94.9235 35.4604 94.9451 37.2401 94.9562 39.0361C94.9725 42.672 94.9562 42.9061 94.6676 43.2326C94.4555 43.4722 94.2378 43.5264 93.4756 43.5264H92.8444L92.8062 43.6954C92.7627 43.9183 92.7627 44.6805 92.8117 45.2519L92.8444 45.7036H97.5086C100.072 45.7036 102.728 45.6872 103.409 45.6657L104.65 45.633L104.628 43.4614C104.611 41.6052 104.601 41.2842 104.53 41.2407C104.486 41.2133 104.018 41.1862 103.49 41.1862H102.532L102.494 42.0134C102.451 42.9116 102.386 43.1345 102.102 43.3578C101.961 43.4666 101.901 43.4722 100.366 43.4722H98.7715L98.7333 42.9659C98.717 42.6939 98.7062 40.6635 98.7169 38.4648C98.7388 34.067 98.7389 34.0889 99.0709 33.7732C99.3376 33.5228 99.4628 33.4901 100.192 33.4682L100.883 33.4466V31.226L98.0695 31.2368C96.5182 31.2476 94.6839 31.2587 93.9926 31.2639Z" fill="#010935"></path><path d="M65.7188 49.0676C65.7188 49.0895 65.9149 49.4595 66.1597 49.8948C70.9984 58.576 80.5993 63.1588 90.3202 61.4281C96.416 60.3449 101.94 56.6711 105.413 51.3918C105.848 50.7277 106.757 49.1548 106.757 49.0676C106.757 49.0405 97.5263 49.0241 86.2382 49.0241C74.9552 49.0241 65.7188 49.0405 65.7188 49.0676Z" fill="#010935"></path></svg> 