<?xml version="1.0" encoding="UTF-8"?> <svg xmlns="http://www.w3.org/2000/svg" width="171" height="78" viewBox="0 0 171 78" fill="none"><path d="M115.071 33.7055C114.49 32.1684 113.298 30.7961 111.847 29.8066C107.657 27.1239 101.272 26.9328 96.9557 29.3581C94.6013 30.5686 93.054 32.9639 92.5724 35.4308C91.6989 39.4836 91.9245 44.3057 95.0207 47.3435C98.631 50.5352 103.886 51.2403 108.558 49.9292C108.78 49.8862 109.484 49.7076 109.969 49.448L110.106 49.3889C111.557 48.7808 112.941 47.7905 113.974 46.4496C116.359 42.9334 116.522 37.665 115.071 33.7055ZM107.463 42.8065C107.299 43.5751 106.786 44.3714 105.977 44.6601C104.69 45.2311 102.949 45.0728 101.757 44.4049C100.757 43.6998 100.628 42.5192 100.499 41.4021C100.402 39.2 100.244 36.868 100.856 34.8547C101.335 33.6078 102.658 33.287 103.854 33.1929C105.11 33.1929 106.333 33.3861 107.108 34.4077C107.591 35.1406 107.562 36.0995 107.657 36.9628C107.623 38.7821 107.785 40.9522 107.463 42.8065ZM69.2655 44.7899C68.2012 44.7243 67.0088 44.8184 65.9784 44.6907L66.0103 33.4773L66.0753 33.384L69.2655 33.3526C69.2988 31.5325 69.3306 29.5805 69.2323 27.9216L57.0825 27.8873L55.0817 27.9223C55.0499 29.6141 55.0499 31.5923 55.0817 33.3191C56.1786 33.3533 57.2083 33.3191 58.2726 33.419V44.2788L58.2415 44.725L55.0499 44.7906C54.9834 46.5469 54.9834 48.305 55.0499 50.0612H69.2648L69.2655 44.7899ZM105.043 52.4544C103.691 54.405 101.982 56.2892 100.117 57.7549C100.049 57.8548 99.8559 57.8169 99.7945 57.725C98.9861 57.2153 98.1162 56.7982 97.3411 56.2892C98.3736 55.0445 99.3736 53.799 100.147 52.4201H99.1444C98.3433 53.6065 97.503 54.8513 96.4401 55.902C95.0207 55.3281 93.7322 54.8177 92.2817 54.4312L92.1205 54.3095C92.3461 53.6641 92.764 53.0582 92.892 52.4187H92.0221L91.1523 54.1447C89.2528 53.7298 87.1566 53.5037 85.2223 53.3776C85.1247 53.091 85.2527 52.6754 85.1247 52.4187H84.2867C84.2202 52.803 84.3836 53.0925 84.1898 53.4111C82.1912 53.5037 80.2577 53.7298 78.39 54.117L77.5165 52.4187C77.1977 52.4187 76.839 52.3574 76.6163 52.453L77.4204 54.3379L77.3242 54.4312C75.8795 54.8527 74.4592 55.3547 73.0696 55.9348L72.9416 55.8692C72.0371 54.879 71.1665 53.7976 70.4564 52.7111C70.2966 52.1649 69.6517 52.4843 69.2966 52.4201C70.0674 53.8275 71.1021 55.0715 72.1318 56.3512C71.2619 56.8638 70.395 57.4355 69.4882 57.8548C67.5166 56.3404 65.7978 54.5178 64.3971 52.4559C64.0095 52.3932 63.7543 52.4216 63.3645 52.4559C65.6856 56.0974 69.2966 59.2906 73.0682 61.1755C73.0682 61.1755 73.0682 61.1471 73.1029 61.1471C73.1304 61.1471 73.1947 61.2061 73.1304 61.2397C75.6785 62.4858 78.3878 63.3798 81.2541 63.7648C91.1508 65.073 100.596 60.8269 106.073 52.4559C105.731 52.4203 105.386 52.4198 105.043 52.4544ZM91.6049 55.3289L91.6996 55.2647C93.0894 55.5841 94.4083 56.0318 95.6339 56.637C94.6013 57.8161 93.2796 58.8406 92.0561 59.7025C91.3157 60.1481 90.5717 60.6323 89.7972 61.0129L88.414 60.4062L88.5087 60.1853C89.6714 58.6212 90.7033 57.022 91.6049 55.3289ZM85.2527 54.37C87.0915 54.405 88.9296 54.596 90.6353 55.0095L90.6693 55.1065C89.7683 56.8295 88.6374 58.4943 87.4147 60.0562C86.8637 60.1218 86.3503 59.9009 85.803 59.8666L85.252 59.801C85.1891 57.916 85.1551 56.2549 85.2527 54.37ZM79.0343 54.9446C80.7104 54.6252 82.4501 54.37 84.2541 54.37L84.2874 59.774C83.6092 59.9286 82.868 59.9286 82.223 60.0927C80.9013 58.5234 79.8065 56.8295 78.873 55.0715L79.0343 54.9446ZM73.8419 56.6713C75.1022 56.0624 76.4218 55.6125 77.774 55.264L77.9048 55.2975C78.8369 57.0549 79.9989 58.7145 81.1587 60.3756C80.7111 60.633 80.1601 60.7868 79.7103 61.0464C77.5305 59.9605 75.547 58.5131 73.8426 56.7646V56.6713H73.8419ZM78.0017 62.1329C75.2938 61.4278 72.7775 60.2144 70.4572 58.5563V58.4571C71.2309 57.9824 72.0074 57.4698 72.8426 57.1147C74.6814 58.9405 76.5816 60.3143 78.6445 61.621C78.484 61.8128 78.2266 62.0053 78.0017 62.1329ZM89.9592 62.5456C86.5434 63.285 82.7379 63.3135 79.3228 62.4844C79.2577 62.3254 79.484 62.2912 79.5802 62.1978C82.5781 60.2472 87.2498 60.2472 90.1862 62.3531C90.2817 62.5456 90.0243 62.4844 89.9592 62.5456ZM93.0547 61.6546L91.5398 62.1322C91.281 62.0046 91.0568 61.8128 90.8291 61.6203L90.8941 61.5226C92.9578 60.3136 94.8262 58.8399 96.5999 57.0833C97.4705 57.434 98.3093 57.916 99.0851 58.4564C97.2782 59.9009 95.182 60.8547 93.0547 61.6546ZM64.3342 25.4606C65.1315 24.3479 66.0036 23.2917 66.9445 22.2996C67.7796 21.5011 68.5562 20.7347 69.46 20.1572C70.2988 20.6997 71.2323 21.1518 72.0378 21.6608C71.0392 22.9004 70.0074 24.1517 69.2663 25.4898C69.4904 25.5897 69.9112 25.5583 70.2345 25.4898C71.0392 24.3099 71.9069 23.1287 72.9424 22.0735C74.3249 22.5861 75.6807 23.1272 77.1008 23.5122L77.2259 23.6391L76.4233 25.4898C76.779 25.5583 77.0046 25.5248 77.3567 25.4898C77.646 24.9502 77.8701 24.3449 78.1926 23.7988C80.0647 24.2159 82.0314 24.4383 84.03 24.5003C84.286 24.727 84.0936 25.2039 84.1905 25.4898H85.0604C85.1551 25.1762 85.0278 24.8204 85.1551 24.536C87.0264 24.4368 88.9917 24.245 90.803 23.7973L90.9599 23.8309L91.8305 25.4883C92.1212 25.4883 92.5073 25.5569 92.7329 25.4227L91.9252 23.5749L91.9925 23.5108C93.4726 23.1272 94.8609 22.5526 96.2789 21.9787C97.2811 23.0324 98.2131 24.2779 99.054 25.4876C99.4069 25.4876 99.7619 25.5226 100.02 25.422C99.622 24.7088 99.1576 24.0354 98.6332 23.4109C98.2075 22.7991 97.7325 22.2238 97.2131 21.6907V21.5252L99.4698 20.2177L99.7952 20.0901C101.758 21.5882 103.475 23.3873 104.885 25.422C105.272 25.422 105.595 25.5561 105.918 25.395C101.594 18.8841 94.4719 14.6949 86.7719 14.0918L86.7379 14.1538L86.6721 14.0918C85.803 13.9978 84.735 13.9606 83.8015 14.0546C83.4479 14.0269 83.03 14.0546 82.6099 14.0918C74.8751 14.6949 67.7521 18.6901 63.3016 25.4912C63.6241 25.4606 64.011 25.5904 64.3342 25.4606ZM77.7132 22.654L77.5845 22.6817C76.2613 22.3338 74.9706 21.9146 73.7457 21.3735L73.8079 21.1817C75.5809 19.4893 77.45 18.0827 79.5129 16.9991C79.9989 17.1909 80.4819 17.3491 80.9649 17.5759L80.8702 17.8253C79.6431 19.3624 78.6785 21.0198 77.7132 22.654ZM84.1254 23.5137C83.2252 23.6413 82.419 23.4852 81.513 23.4145C80.6467 23.2862 79.5484 23.1936 78.6785 22.9019C79.6135 21.1533 80.7111 19.4572 82.0314 17.896L84.0951 18.1797C84.1905 19.8378 84.1254 21.7556 84.1254 23.5137ZM85.124 23.5479C85.0604 21.8497 85.0936 19.9676 85.124 18.2103C85.7712 18.1169 86.4769 18.0178 87.1233 17.9237C88.38 19.5184 89.6078 21.1533 90.4466 22.9019C88.7037 23.3271 86.9172 23.544 85.124 23.5479ZM95.4097 21.3086C94.1501 21.8489 92.8595 22.3608 91.4755 22.654C90.4769 20.9608 89.3815 19.2683 88.153 17.6328C88.6049 17.3827 89.1559 17.1909 89.6382 16.9364C91.7372 17.9893 93.7655 19.4893 95.4719 21.2087L95.4097 21.3086ZM91.281 15.847C93.9889 16.5514 96.5356 17.7633 98.8566 19.4244L98.7923 19.552L96.5703 20.796H96.4061C94.7004 19.0773 92.7025 17.5759 90.6693 16.391C90.7336 16.1671 91.0576 16.006 91.281 15.847ZM89.9932 15.5261V15.594C87.1869 17.6328 82.6431 17.8253 79.6793 15.9403C79.5129 15.8127 79.1948 15.7507 79.1601 15.5269C82.5788 14.7321 86.6056 14.6679 89.9932 15.5261ZM70.3292 19.4893C72.3617 17.9893 74.617 16.8715 77.0032 16.1044C77.1008 16.0045 77.163 15.9104 77.2902 15.9104V15.9761C77.5476 16.0388 77.7421 15.7493 77.967 15.9389C78.1615 16.1044 78.3893 16.2305 78.5484 16.3895C76.5512 17.6328 74.5838 19.105 72.7782 20.8901C71.9077 20.5765 71.105 20.0945 70.3285 19.552L70.3292 19.4893ZM84.1587 45.0393C81.129 45.8713 77.839 45.2369 75.6481 42.9334C75.3914 42.614 75.2287 42.2334 74.9699 41.9155L70.6199 41.9461C70.5512 44.5325 70.5208 47.504 70.6199 50.0605L75.4529 50.0291L75.5172 48.4949C76.0675 48.7501 76.6163 49.0688 77.163 49.3554C80.5151 50.7627 84.8304 51.0821 88.1515 49.3554C90.5709 48.0173 91.8609 45.4309 91.5051 42.6461C91.1523 39.9343 88.5723 37.4732 85.9635 36.8046L78.1608 34.5346L77.5838 34.2459C77.3256 34.0242 77.1637 33.7383 77.2266 33.384C77.839 32.3325 79.2591 32.6519 80.3228 32.6803C82.5788 33.0004 84.8991 33.7668 86.2216 35.8442C87.6381 35.8442 89.2817 35.8719 90.8276 35.8107C90.8934 33.1922 90.8023 30.8938 90.764 28.2417C89.3135 28.2082 87.5398 28.2082 86.0915 28.2753C86.0264 28.6552 86.1537 29.1962 85.9924 29.5812L84.5108 28.7821C80.9634 27.2814 75.9988 27.1246 72.7768 29.4566C70.6806 30.9871 70.0378 33.7369 70.5859 36.1636C71.0031 38.4598 73.1947 40.1545 75.2909 40.9507C78.1594 41.9716 81.1558 42.711 84.0618 43.6998C84.3496 43.8296 84.7357 44.1191 84.6735 44.4698C84.675 44.7535 84.3829 44.9175 84.1587 45.0393Z" fill="#010935"></path></svg> 