<svg xmlns="http://www.w3.org/2000/svg" xmlns:xlink="http://www.w3.org/1999/xlink" width="400" zoomAndPan="magnify" viewBox="16 26 124 22" height="103" preserveAspectRatio="xMidYMid meet" version="1.0"><defs><g/><clipPath id="d78a5ab741"><path d="M 118.046875 28.179688 L 136.796875 28.179688 L 136.796875 46.929688 L 118.046875 46.929688 Z M 118.046875 28.179688 " clip-rule="nonzero"/></clipPath><clipPath id="b329b3fbe7"><path d="M 86 7 L 99.601562 7 L 99.601562 25 L 86 25 Z M 86 7 " clip-rule="nonzero"/></clipPath><clipPath id="de2fed51f1"><rect x="0" width="100" y="0" height="32"/></clipPath><clipPath id="093292f4d2"><path d="M 0.320312 1 L 4 1 L 4 5 L 0.320312 5 Z M 0.320312 1 " clip-rule="nonzero"/></clipPath><clipPath id="701489db6e"><path d="M 3 1 L 7.761719 1 L 7.761719 5 L 3 5 Z M 3 1 " clip-rule="nonzero"/></clipPath><clipPath id="e6c43b06e6"><rect x="0" width="8" y="0" height="7"/></clipPath></defs><g clip-path="url(#d78a5ab741)"><path fill="#000000" d="M 136.78125 37.242188 C 136.734375 35.550781 136.257812 33.992188 135.351562 32.566406 C 134.019531 30.476562 132.136719 29.109375 129.738281 28.476562 C 129.207031 28.335938 128.664062 28.253906 128.109375 28.214844 C 127.984375 28.207031 127.859375 28.203125 127.730469 28.195312 C 127.710938 28.195312 127.6875 28.1875 127.664062 28.179688 C 127.507812 28.179688 127.355469 28.179688 127.195312 28.179688 C 127.171875 28.183594 127.144531 28.191406 127.117188 28.195312 C 126.445312 28.210938 125.789062 28.308594 125.140625 28.472656 C 123.523438 28.886719 122.109375 29.671875 120.914062 30.839844 C 119.65625 32.0625 118.808594 33.523438 118.367188 35.21875 C 118.226562 35.746094 118.132812 36.28125 118.101562 36.828125 C 118.089844 37.03125 118.078125 37.226562 118.066406 37.429688 C 118.066406 37.453125 118.054688 37.476562 118.050781 37.5 C 118.050781 37.535156 118.050781 37.570312 118.050781 37.605469 C 118.054688 37.636719 118.066406 37.664062 118.066406 37.691406 C 118.085938 37.964844 118.097656 38.234375 118.121094 38.503906 C 118.171875 39.101562 118.292969 39.691406 118.472656 40.265625 C 119.191406 42.570312 120.589844 44.351562 122.660156 45.605469 C 123.628906 46.191406 124.683594 46.570312 125.800781 46.769531 C 126.261719 46.851562 126.722656 46.894531 127.1875 46.917969 C 127.214844 46.917969 127.242188 46.921875 127.265625 46.929688 C 127.378906 46.929688 127.496094 46.929688 127.609375 46.929688 C 127.628906 46.925781 127.644531 46.921875 127.667969 46.917969 C 128.015625 46.898438 128.363281 46.871094 128.710938 46.828125 C 129.472656 46.722656 130.207031 46.527344 130.914062 46.242188 C 132.070312 45.777344 133.09375 45.109375 133.980469 44.234375 C 134.902344 43.332031 135.609375 42.285156 136.097656 41.09375 C 136.382812 40.398438 136.582031 39.679688 136.6875 38.933594 C 136.742188 38.582031 136.78125 38.226562 136.78125 37.867188 C 136.78125 37.832031 136.785156 37.792969 136.792969 37.761719 C 136.792969 37.617188 136.792969 37.472656 136.792969 37.328125 C 136.789062 37.300781 136.78125 37.273438 136.78125 37.242188 Z M 136.382812 35.605469 C 135.984375 35.691406 135.597656 35.773438 135.207031 35.859375 C 135.101562 35.488281 135 35.132812 134.890625 34.769531 C 135.253906 34.628906 135.628906 34.492188 136.011719 34.347656 C 136.167969 34.757812 136.292969 35.167969 136.382812 35.605469 Z M 135.855469 33.945312 C 135.480469 34.105469 135.117188 34.257812 134.742188 34.421875 C 134.65625 34.242188 134.578125 34.074219 134.496094 33.910156 C 134.410156 33.746094 134.320312 33.582031 134.222656 33.40625 C 134.5625 33.199219 134.90625 32.992188 135.253906 32.777344 C 135.480469 33.152344 135.679688 33.539062 135.855469 33.945312 Z M 134.207031 31.386719 C 134.5 31.710938 134.765625 32.050781 135.019531 32.417969 C 134.683594 32.648438 134.355469 32.867188 134.023438 33.09375 C 133.792969 32.796875 133.558594 32.5 133.320312 32.195312 C 133.609375 31.929688 133.902344 31.660156 134.207031 31.386719 Z M 133.902344 31.0625 C 133.613281 31.351562 133.328125 31.632812 133.050781 31.914062 C 132.773438 31.671875 132.488281 31.429688 132.203125 31.175781 C 132.4375 30.859375 132.675781 30.539062 132.921875 30.214844 C 133.273438 30.480469 133.601562 30.765625 133.902344 31.0625 Z M 132.570312 29.960938 C 132.339844 30.296875 132.117188 30.625 131.894531 30.960938 C 131.566406 30.773438 131.242188 30.585938 130.90625 30.390625 C 131.082031 30.039062 131.253906 29.675781 131.433594 29.304688 C 131.832031 29.5 132.203125 29.71875 132.570312 29.960938 Z M 129.796875 28.699219 C 130.226562 28.808594 130.632812 28.953125 131.039062 29.125 C 130.878906 29.496094 130.71875 29.863281 130.5625 30.226562 C 130.199219 30.101562 129.847656 29.980469 129.488281 29.855469 C 129.59375 29.476562 129.691406 29.09375 129.796875 28.699219 Z M 128.082031 28.414062 C 128.523438 28.445312 128.949219 28.503906 129.378906 28.597656 C 129.292969 28.996094 129.207031 29.382812 129.125 29.769531 C 128.746094 29.71875 128.378906 29.664062 127.996094 29.609375 C 128.023438 29.21875 128.050781 28.824219 128.082031 28.414062 Z M 127.644531 28.390625 C 127.648438 28.796875 127.625 29.199219 127.625 29.59375 C 127.238281 29.613281 126.867188 29.632812 126.480469 29.648438 C 126.433594 29.257812 126.386719 28.859375 126.335938 28.453125 C 126.78125 28.402344 127.207031 28.382812 127.644531 28.390625 Z M 125.914062 28.515625 C 125.988281 28.914062 126.050781 29.308594 126.117188 29.699219 C 125.746094 29.789062 125.382812 29.875 125.007812 29.964844 C 124.886719 29.589844 124.765625 29.210938 124.640625 28.820312 C 125.058594 28.691406 125.476562 28.585938 125.914062 28.515625 Z M 124.230469 28.964844 C 124.371094 29.34375 124.511719 29.71875 124.652344 30.089844 C 124.300781 30.25 123.964844 30.40625 123.617188 30.5625 C 123.429688 30.21875 123.234375 29.863281 123.039062 29.507812 C 123.425781 29.296875 123.8125 29.121094 124.230469 28.964844 Z M 122.664062 29.726562 C 122.875 30.070312 123.082031 30.410156 123.289062 30.753906 C 122.980469 30.972656 122.675781 31.191406 122.363281 31.414062 C 122.109375 31.105469 121.855469 30.796875 121.59375 30.488281 C 121.9375 30.207031 122.289062 29.953125 122.664062 29.726562 Z M 121.269531 30.769531 C 121.542969 31.066406 121.8125 31.363281 122.078125 31.65625 C 121.8125 31.933594 121.558594 32.203125 121.292969 32.480469 C 120.988281 32.230469 120.679688 31.976562 120.363281 31.71875 C 120.644531 31.382812 120.941406 31.066406 121.269531 30.769531 Z M 120.097656 32.058594 C 120.425781 32.300781 120.742188 32.542969 121.0625 32.78125 C 120.851562 33.109375 120.652344 33.417969 120.449219 33.738281 C 120.101562 33.550781 119.75 33.355469 119.394531 33.160156 C 119.601562 32.773438 119.835938 32.414062 120.097656 32.058594 Z M 119.191406 33.542969 C 119.558594 33.722656 119.914062 33.894531 120.269531 34.066406 C 120.128906 34.421875 119.988281 34.769531 119.847656 35.125 C 119.472656 35.003906 119.09375 34.886719 118.699219 34.761719 C 118.839844 34.335938 119 33.941406 119.191406 33.542969 Z M 118.582031 35.175781 C 118.972656 35.28125 119.355469 35.386719 119.738281 35.488281 C 119.667969 35.867188 119.597656 36.230469 119.527344 36.605469 C 119.136719 36.5625 118.738281 36.511719 118.332031 36.464844 C 118.382812 36.023438 118.472656 35.605469 118.582031 35.175781 Z M 118.292969 36.894531 C 118.699219 36.925781 119.097656 36.949219 119.496094 36.980469 C 119.496094 37.363281 119.496094 37.738281 119.496094 38.121094 C 119.101562 38.148438 118.703125 38.175781 118.296875 38.207031 C 118.257812 37.765625 118.261719 37.335938 118.292969 36.894531 Z M 118.335938 38.632812 C 118.738281 38.585938 119.136719 38.539062 119.527344 38.492188 C 119.601562 38.871094 119.671875 39.238281 119.742188 39.609375 C 119.359375 39.710938 118.972656 39.816406 118.582031 39.921875 C 118.46875 39.496094 118.386719 39.074219 118.335938 38.632812 Z M 118.703125 40.335938 C 119.089844 40.210938 119.46875 40.09375 119.847656 39.972656 C 119.988281 40.324219 120.128906 40.671875 120.269531 41.03125 C 119.917969 41.203125 119.558594 41.378906 119.191406 41.558594 C 119 41.15625 118.839844 40.761719 118.703125 40.335938 Z M 119.386719 41.9375 C 119.742188 41.742188 120.09375 41.550781 120.441406 41.359375 C 120.644531 41.683594 120.847656 41.992188 121.058594 42.316406 C 120.738281 42.554688 120.425781 42.792969 120.09375 43.035156 C 119.835938 42.691406 119.605469 42.324219 119.386719 41.9375 Z M 120.363281 43.378906 C 120.675781 43.121094 120.988281 42.867188 121.292969 42.613281 C 121.554688 42.890625 121.8125 43.160156 122.078125 43.4375 C 121.8125 43.730469 121.546875 44.027344 121.269531 44.328125 C 120.945312 44.03125 120.648438 43.722656 120.363281 43.378906 Z M 121.59375 44.613281 C 121.855469 44.300781 122.109375 43.992188 122.359375 43.6875 C 122.671875 43.910156 122.972656 44.125 123.285156 44.347656 C 123.082031 44.683594 122.875 45.027344 122.660156 45.375 C 122.289062 45.144531 121.9375 44.890625 121.59375 44.613281 Z M 123.039062 45.589844 C 123.234375 45.234375 123.425781 44.882812 123.617188 44.535156 C 123.960938 44.691406 124.296875 44.847656 124.652344 45.007812 C 124.515625 45.375 124.371094 45.75 124.230469 46.136719 C 123.816406 45.980469 123.425781 45.800781 123.039062 45.589844 Z M 125.914062 46.582031 C 125.480469 46.515625 125.0625 46.410156 124.640625 46.277344 C 124.761719 45.890625 124.886719 45.511719 125.007812 45.136719 C 125.378906 45.226562 125.738281 45.3125 126.113281 45.402344 C 126.050781 45.785156 125.980469 46.179688 125.914062 46.582031 Z M 126.339844 46.644531 C 126.390625 46.242188 126.433594 45.84375 126.484375 45.449219 C 126.867188 45.46875 127.242188 45.488281 127.625 45.503906 C 127.632812 45.894531 127.640625 46.292969 127.652344 46.707031 C 127.207031 46.71875 126.78125 46.695312 126.339844 46.644531 Z M 127.417969 45.296875 C 123.070312 45.269531 119.683594 41.753906 119.6875 37.546875 C 119.695312 33.234375 123.207031 29.753906 127.53125 29.808594 C 131.820312 29.863281 135.203125 33.378906 135.175781 37.609375 C 135.140625 41.800781 131.746094 45.28125 127.417969 45.296875 Z M 128.082031 46.683594 C 128.054688 46.277344 128.023438 45.882812 128 45.488281 C 128.378906 45.433594 128.746094 45.382812 129.125 45.328125 C 129.207031 45.710938 129.292969 46.101562 129.378906 46.5 C 128.949219 46.59375 128.523438 46.65625 128.082031 46.683594 Z M 129.796875 46.394531 C 129.691406 45.996094 129.59375 45.613281 129.492188 45.238281 C 129.851562 45.113281 130.207031 44.988281 130.5625 44.867188 C 130.714844 45.226562 130.875 45.59375 131.035156 45.96875 C 130.636719 46.140625 130.230469 46.285156 129.796875 46.394531 Z M 131.433594 45.792969 C 131.257812 45.429688 131.082031 45.070312 130.902344 44.707031 C 131.234375 44.515625 131.554688 44.328125 131.890625 44.136719 C 132.113281 44.464844 132.335938 44.792969 132.566406 45.132812 C 132.207031 45.378906 131.835938 45.59375 131.433594 45.792969 Z M 132.921875 44.882812 C 132.675781 44.5625 132.4375 44.238281 132.199219 43.921875 C 132.488281 43.671875 132.769531 43.425781 133.042969 43.191406 C 133.320312 43.46875 133.605469 43.75 133.890625 44.039062 C 133.597656 44.335938 133.273438 44.617188 132.921875 44.882812 Z M 134.207031 43.714844 C 133.90625 43.441406 133.609375 43.171875 133.316406 42.90625 C 133.546875 42.609375 133.78125 42.3125 134.019531 42.007812 C 134.351562 42.230469 134.679688 42.453125 135.015625 42.683594 C 134.769531 43.046875 134.503906 43.382812 134.207031 43.714844 Z M 135.253906 42.320312 C 134.90625 42.105469 134.566406 41.898438 134.226562 41.695312 C 134.402344 41.351562 134.570312 41.023438 134.746094 40.679688 C 135.105469 40.835938 135.472656 40.992188 135.851562 41.152344 C 135.679688 41.558594 135.480469 41.945312 135.253906 42.320312 Z M 136.015625 40.753906 C 135.632812 40.609375 135.257812 40.46875 134.890625 40.332031 C 134.996094 39.964844 135.101562 39.605469 135.203125 39.238281 C 135.589844 39.320312 135.980469 39.40625 136.378906 39.492188 C 136.296875 39.925781 136.167969 40.332031 136.015625 40.753906 Z M 136.453125 39.070312 C 136.0625 39.003906 135.667969 38.9375 135.28125 38.875 C 135.316406 38.492188 135.351562 38.125 135.382812 37.746094 C 135.773438 37.738281 136.171875 37.765625 136.566406 37.765625 C 136.605469 37.894531 136.523438 38.855469 136.453125 39.070312 Z M 135.386719 37.363281 C 135.351562 36.984375 135.316406 36.609375 135.285156 36.226562 C 135.675781 36.160156 136.066406 36.097656 136.46875 36.027344 C 136.539062 36.464844 136.582031 36.890625 136.589844 37.332031 C 136.179688 37.34375 135.78125 37.351562 135.386719 37.363281 Z M 132.523438 43.964844 C 132.703125 43.8125 132.875 43.65625 133.054688 43.503906 C 133.222656 43.675781 133.382812 43.847656 133.554688 44.03125 C 133.371094 44.210938 133.179688 44.371094 132.972656 44.53125 C 132.824219 44.339844 132.675781 44.15625 132.523438 43.964844 Z M 126.691406 45.710938 C 126.929688 45.71875 127.15625 45.730469 127.386719 45.742188 C 127.386719 45.980469 127.386719 46.214844 127.386719 46.457031 C 127.132812 46.464844 126.886719 46.457031 126.625 46.425781 C 126.648438 46.183594 126.667969 45.949219 126.691406 45.710938 Z M 125.160156 29.671875 C 125.085938 29.453125 125.027344 29.21875 124.953125 28.972656 C 125.207031 28.914062 125.445312 28.851562 125.699219 28.792969 C 125.757812 29.035156 125.792969 29.269531 125.84375 29.507812 C 125.613281 29.566406 125.394531 29.617188 125.160156 29.671875 Z M 118.523438 37.164062 C 118.773438 37.175781 119.007812 37.1875 119.246094 37.195312 C 119.246094 37.429688 119.246094 37.660156 119.246094 37.898438 C 119.007812 37.910156 118.773438 37.917969 118.527344 37.929688 C 118.507812 37.671875 118.511719 37.417969 118.523438 37.164062 Z M 128.320312 28.679688 C 128.574219 28.703125 128.824219 28.734375 129.078125 28.789062 C 129.035156 29.023438 128.992188 29.257812 128.945312 29.496094 C 128.714844 29.464844 128.488281 29.433594 128.25 29.398438 C 128.273438 29.160156 128.292969 28.921875 128.320312 28.679688 Z M 134.871094 34.109375 C 134.761719 33.898438 134.65625 33.695312 134.546875 33.488281 C 134.753906 33.371094 134.957031 33.25 135.175781 33.125 C 135.304688 33.347656 135.414062 33.570312 135.527344 33.800781 C 135.308594 33.914062 135.09375 34.007812 134.871094 34.109375 Z M 136.257812 36.320312 C 136.304688 36.570312 136.316406 36.820312 136.332031 37.0625 C 136.273438 37.085938 135.746094 37.121094 135.609375 37.109375 C 135.585938 36.882812 135.566406 36.65625 135.546875 36.417969 C 135.785156 36.386719 136.019531 36.355469 136.257812 36.320312 Z M 120.734375 32.828125 C 120.609375 33.023438 120.484375 33.214844 120.355469 33.421875 C 120.148438 33.300781 119.941406 33.183594 119.726562 33.054688 C 119.863281 32.832031 119.992188 32.621094 120.144531 32.410156 C 120.34375 32.550781 120.539062 32.6875 120.734375 32.828125 Z M 118.757812 35.488281 C 118.992188 35.542969 119.226562 35.601562 119.457031 35.65625 C 119.414062 35.890625 119.371094 36.109375 119.328125 36.34375 C 119.085938 36.320312 118.855469 36.273438 118.609375 36.242188 C 118.648438 35.988281 118.691406 35.738281 118.757812 35.488281 Z M 123.710938 30.246094 C 123.601562 30.039062 123.492188 29.824219 123.382812 29.601562 C 123.609375 29.476562 123.839844 29.382812 124.082031 29.285156 C 124.175781 29.511719 124.261719 29.730469 124.351562 29.953125 C 124.136719 30.050781 123.925781 30.144531 123.710938 30.246094 Z M 119.328125 38.753906 C 119.371094 38.984375 119.414062 39.207031 119.457031 39.449219 C 119.222656 39.503906 118.992188 39.554688 118.757812 39.613281 C 118.6875 39.367188 118.652344 39.121094 118.605469 38.867188 C 118.847656 38.816406 119.082031 38.792969 119.328125 38.753906 Z M 133.648438 42.886719 C 133.796875 42.695312 133.9375 42.519531 134.082031 42.335938 C 134.277344 42.472656 134.46875 42.613281 134.667969 42.753906 C 134.523438 42.964844 134.363281 43.160156 134.195312 43.359375 C 134.011719 43.199219 133.832031 43.042969 133.648438 42.886719 Z M 128.941406 45.605469 C 128.996094 45.835938 129.027344 46.070312 129.078125 46.308594 C 128.828125 46.363281 128.574219 46.390625 128.320312 46.421875 C 128.296875 46.175781 128.273438 45.945312 128.25 45.703125 C 128.476562 45.667969 128.703125 45.636719 128.941406 45.605469 Z M 133.644531 32.210938 C 133.832031 32.050781 134.007812 31.902344 134.195312 31.738281 C 134.367188 31.933594 134.519531 32.132812 134.671875 32.34375 C 134.472656 32.484375 134.277344 32.625 134.078125 32.765625 C 133.933594 32.578125 133.792969 32.398438 133.644531 32.210938 Z M 122.972656 44.421875 C 122.84375 44.621094 122.710938 44.820312 122.578125 45.03125 C 122.359375 44.890625 122.15625 44.746094 121.953125 44.585938 C 122.105469 44.390625 122.25 44.203125 122.402344 44.015625 C 122.589844 44.148438 122.777344 44.285156 122.972656 44.421875 Z M 121.75 43.453125 C 121.578125 43.625 121.417969 43.796875 121.246094 43.972656 C 121.058594 43.796875 120.890625 43.613281 120.71875 43.417969 C 120.902344 43.257812 121.082031 43.097656 121.261719 42.941406 C 121.425781 43.109375 121.582031 43.28125 121.75 43.453125 Z M 134.546875 41.609375 C 134.65625 41.40625 134.761719 41.199219 134.871094 40.984375 C 135.089844 41.085938 135.300781 41.183594 135.53125 41.289062 C 135.421875 41.519531 135.308594 41.746094 135.179688 41.96875 C 134.960938 41.851562 134.757812 41.734375 134.546875 41.609375 Z M 135.613281 37.976562 C 135.851562 37.988281 136.089844 38.003906 136.339844 38.015625 C 136.316406 38.273438 136.292969 38.523438 136.269531 38.777344 C 136.023438 38.742188 135.789062 38.710938 135.546875 38.679688 C 135.566406 38.441406 135.589844 38.21875 135.613281 37.976562 Z M 122.398438 31.085938 C 122.25 30.898438 122.105469 30.710938 121.949219 30.519531 C 122.148438 30.355469 122.355469 30.214844 122.574219 30.070312 C 122.707031 30.277344 122.839844 30.480469 122.972656 30.679688 C 122.78125 30.8125 122.59375 30.945312 122.398438 31.085938 Z M 130.4375 45.167969 C 130.53125 45.390625 130.617188 45.613281 130.707031 45.839844 C 130.46875 45.945312 130.230469 46.015625 129.980469 46.09375 C 129.910156 45.855469 129.84375 45.628906 129.777344 45.398438 C 130 45.324219 130.21875 45.246094 130.4375 45.167969 Z M 130.707031 29.253906 C 130.621094 29.480469 130.53125 29.699219 130.445312 29.929688 C 130.226562 29.851562 130.007812 29.773438 129.78125 29.699219 C 129.847656 29.472656 129.914062 29.242188 129.984375 29.007812 C 130.230469 29.078125 130.460938 29.15625 130.707031 29.253906 Z M 131.21875 30.285156 C 131.332031 30.070312 131.445312 29.855469 131.554688 29.640625 C 131.785156 29.761719 132.003906 29.882812 132.214844 30.027344 C 132.085938 30.230469 131.957031 30.429688 131.832031 30.636719 C 131.625 30.515625 131.421875 30.402344 131.21875 30.285156 Z M 124.351562 45.144531 C 124.261719 45.363281 124.171875 45.582031 124.078125 45.8125 C 123.839844 45.71875 123.613281 45.617188 123.378906 45.496094 C 123.492188 45.277344 123.597656 45.0625 123.707031 44.851562 C 123.921875 44.949219 124.132812 45.046875 124.351562 45.144531 Z M 126.691406 29.386719 C 126.667969 29.152344 126.648438 28.917969 126.625 28.671875 C 126.878906 28.640625 127.128906 28.636719 127.386719 28.632812 C 127.386719 28.871094 127.386719 29.105469 127.386719 29.355469 C 127.15625 29.367188 126.929688 29.378906 126.691406 29.386719 Z M 131.832031 44.464844 C 131.957031 44.667969 132.085938 44.867188 132.21875 45.074219 C 132.003906 45.21875 131.785156 45.335938 131.554688 45.460938 C 131.445312 45.242188 131.332031 45.035156 131.21875 44.820312 C 131.421875 44.695312 131.621094 44.585938 131.832031 44.464844 Z M 119.960938 34.179688 C 119.875 34.398438 119.789062 34.609375 119.699219 34.832031 C 119.472656 34.753906 119.246094 34.675781 119.011719 34.59375 C 119.101562 34.347656 119.1875 34.113281 119.300781 33.882812 C 119.523438 33.980469 119.738281 34.078125 119.960938 34.179688 Z M 124.957031 46.117188 C 125.027344 45.886719 125.09375 45.65625 125.160156 45.421875 C 125.390625 45.476562 125.609375 45.527344 125.84375 45.585938 C 125.792969 45.824219 125.75 46.058594 125.703125 46.296875 C 125.453125 46.25 125.210938 46.191406 124.957031 46.117188 Z M 119.960938 40.917969 C 119.742188 41.015625 119.523438 41.117188 119.296875 41.21875 C 119.199219 40.980469 119.109375 40.75 119.011719 40.503906 C 119.242188 40.421875 119.46875 40.34375 119.703125 40.261719 C 119.789062 40.484375 119.875 40.695312 119.960938 40.917969 Z M 132.523438 31.132812 C 132.675781 30.941406 132.820312 30.757812 132.972656 30.566406 C 133.175781 30.722656 133.363281 30.886719 133.554688 31.066406 C 133.386719 31.25 133.222656 31.421875 133.054688 31.59375 C 132.878906 31.4375 132.703125 31.289062 132.523438 31.132812 Z M 135.1875 34.90625 C 135.410156 34.828125 135.636719 34.753906 135.867188 34.675781 C 135.957031 34.914062 136.023438 35.160156 136.089844 35.410156 C 135.851562 35.46875 135.621094 35.527344 135.382812 35.585938 C 135.320312 35.355469 135.253906 35.136719 135.1875 34.90625 Z M 120.734375 42.269531 C 120.542969 42.40625 120.347656 42.542969 120.144531 42.6875 C 119.992188 42.480469 119.863281 42.265625 119.726562 42.042969 C 119.941406 41.917969 120.144531 41.796875 120.355469 41.675781 C 120.480469 41.878906 120.605469 42.070312 120.734375 42.269531 Z M 121.753906 31.644531 C 121.589844 31.816406 121.433594 31.980469 121.265625 32.15625 C 121.085938 31.996094 120.90625 31.839844 120.722656 31.679688 C 120.890625 31.484375 121.0625 31.304688 121.25 31.125 C 121.417969 31.300781 121.582031 31.472656 121.753906 31.644531 Z M 135.1875 40.195312 C 135.253906 39.96875 135.316406 39.75 135.382812 39.523438 C 135.617188 39.570312 135.847656 39.636719 136.089844 39.695312 C 136.023438 39.945312 135.960938 40.1875 135.867188 40.429688 C 135.640625 40.347656 135.414062 40.269531 135.1875 40.195312 Z M 135.1875 40.195312 " fill-opacity="1" fill-rule="nonzero"/></g><g transform="matrix(1, 0, 0, 1, 18, 22)"><g clip-path="url(#de2fed51f1)"><g fill="#171b35" fill-opacity="1"><g transform="translate(0.197257, 24.734201)"><g><path d="M 17.8125 0 L 17.78125 -10.390625 L 12.6875 -1.828125 L 10.890625 -1.828125 L 5.8125 -10.171875 L 5.8125 0 L 2.046875 0 L 2.046875 -17.3125 L 5.375 -17.3125 L 11.84375 -6.546875 L 18.234375 -17.3125 L 21.515625 -17.3125 L 21.5625 0 Z M 17.8125 0 "/></g></g></g><g fill="#171b35" fill-opacity="1"><g transform="translate(22.828436, 24.734201)"><g><path d="M 15.453125 -3.21875 L 15.453125 0 L 2.046875 0 L 2.046875 -17.3125 L 15.140625 -17.3125 L 15.140625 -14.09375 L 6.03125 -14.09375 L 6.03125 -10.34375 L 14.078125 -10.34375 L 14.078125 -7.21875 L 6.03125 -7.21875 L 6.03125 -3.21875 Z M 15.453125 -3.21875 "/></g></g></g><g fill="#171b35" fill-opacity="1"><g transform="translate(38.43527, 24.734201)"><g><path d="M 5.640625 -14.046875 L 0.09375 -14.046875 L 0.09375 -17.3125 L 15.1875 -17.3125 L 15.1875 -14.046875 L 9.640625 -14.046875 L 9.640625 0 L 5.640625 0 Z M 5.640625 -14.046875 "/></g></g></g><g fill="#171b35" fill-opacity="1"><g transform="translate(52.731229, 24.734201)"><g><path d="M 13.453125 -3.703125 L 5.421875 -3.703125 L 3.890625 0 L -0.21875 0 L 7.5 -17.3125 L 11.453125 -17.3125 L 19.1875 0 L 14.984375 0 Z M 12.1875 -6.75 L 9.453125 -13.375 L 6.703125 -6.75 Z M 12.1875 -6.75 "/></g></g></g><g fill="#171b35" fill-opacity="1"><g transform="translate(70.687757, 24.734201)"><g><path d="M 2.046875 -17.3125 L 6.0625 -17.3125 L 6.0625 -3.265625 L 14.734375 -3.265625 L 14.734375 0 L 2.046875 0 Z M 2.046875 -17.3125 "/></g></g></g><g clip-path="url(#b329b3fbe7)"><g fill="#171b35" fill-opacity="1"><g transform="translate(84.63744, 24.734201)"><g><path d="M 2.046875 -17.3125 L 6.0625 -17.3125 L 6.0625 -3.265625 L 14.734375 -3.265625 L 14.734375 0 L 2.046875 0 Z M 2.046875 -17.3125 "/></g></g></g></g></g></g><g transform="matrix(1, 0, 0, 1, 130, 20)"><g clip-path="url(#e6c43b06e6)"><g clip-path="url(#093292f4d2)"><g fill="#35384b" fill-opacity="1"><g transform="translate(0.347151, 4.534797)"><g><path d="M 1.0625 -2.640625 L 0.015625 -2.640625 L 0.015625 -3.265625 L 2.859375 -3.265625 L 2.859375 -2.640625 L 1.8125 -2.640625 L 1.8125 0 L 1.0625 0 Z M 1.0625 -2.640625 "/></g></g></g></g><g clip-path="url(#701489db6e)"><g fill="#35384b" fill-opacity="1"><g transform="translate(3.10534, 4.534797)"><g><path d="M 3.359375 0 L 3.34375 -1.953125 L 2.390625 -0.34375 L 2.046875 -0.34375 L 1.09375 -1.90625 L 1.09375 0 L 0.390625 0 L 0.390625 -3.265625 L 1.015625 -3.265625 L 2.234375 -1.234375 L 3.4375 -3.265625 L 4.046875 -3.265625 L 4.0625 0 Z M 3.359375 0 "/></g></g></g></g></g></g></svg>