<?xml version="1.0" encoding="UTF-8"?> <svg xmlns="http://www.w3.org/2000/svg" width="171" height="78" viewBox="0 0 171 78" fill="none"><path d="M86.4716 37.052C88.7456 37.052 90.5688 37.7078 92.2405 38.969C94.3809 40.5826 95.8523 43.1386 95.8523 45.8456V56.0515H93.5116V46.3839C93.5116 45.7617 93.545 45.3241 93.3948 44.7367C92.5422 41.6269 89.7996 39.3562 86.5551 39.3562C83.846 39.3562 81.4886 40.9531 80.2842 43.2909C79.7155 44.401 79.4817 45.3421 79.4817 46.5362V56.0359H77.141V46.1333C77.141 44.2332 78.1606 41.6952 79.3983 40.2829C81.1201 38.2952 83.6623 37.052 86.4716 37.052ZM80.2175 56.0503H82.5582L82.6249 51.2752C83.6611 52.0988 84.9656 52.6036 86.4037 52.6036C89.7651 52.6036 92.4742 49.863 92.4742 46.5002C92.4742 43.1206 89.7484 40.3968 86.4037 40.3968C83.4775 40.3968 81.671 42.0105 80.8518 44.2128C80.45 45.2726 80.3498 46.4822 80.3331 47.6931L80.2175 56.0503ZM86.5384 42.5835C88.2269 42.5835 89.6661 43.7105 90.1335 45.257H88.2602C87.8918 44.6851 87.2574 44.3159 86.5384 44.3159C85.4009 44.3159 84.4815 45.2402 84.4815 46.3839C84.4815 47.5276 85.4009 48.4519 86.5384 48.4519C87.2574 48.4519 87.8763 48.0815 88.2436 47.5276H90.1335C89.6482 49.0573 88.2269 50.1843 86.5384 50.1843C84.4648 50.1843 82.7764 48.4867 82.7764 46.4019C82.7764 44.2811 84.4648 42.5835 86.5384 42.5835ZM68.4615 22.2558C71.3543 20.3892 75.2678 21.0785 78.2106 22.9115C84.398 26.7958 90.6021 31.6716 95.1846 37.4548C96.0872 38.5985 96.941 39.7243 97.7268 40.8008C98.5126 41.8942 99.265 43.0031 99.984 44.1133C103.629 49.7455 106.021 55.7649 106.84 59.7655C106.907 60.4548 107.141 62.6236 106.405 64.7587C105.753 66.6757 103.98 68.9116 100.82 69.3156C93.9802 70.1728 84.9835 62.4389 80.9031 58.8915C80.2675 58.219 79.5819 57.5464 78.8963 56.8571H80.9866C81.4051 57.2779 81.8057 57.7143 82.2076 58.1351C86.7566 62.6236 90.8704 64.6077 95.1178 66.81C97.8603 67.9537 100.887 68.5075 103.06 66.8268C104.365 65.8185 105.451 63.7337 105.418 62.0014C105.518 58.7896 104.264 55.7973 103.161 53.0064C102.09 50.3497 100.735 47.8117 99.0301 45.1719C97.9259 43.4575 96.7228 41.4902 95.3849 39.6907C90.4519 33.0838 83.3451 27.5187 76.1871 23.5673C75.3345 23.029 73.7117 22.39 72.1902 22.4572C70.9358 22.5243 69.8328 23.1633 68.8288 24.0037C67.157 25.3992 66.3533 28.6445 67.0557 31.5025C67.3061 32.5108 67.5577 33.4531 68.477 35.5043C68.6439 35.8915 68.9623 36.4622 69.1626 36.9166C69.698 38.1274 70.3002 39.0853 70.6675 39.9928C71.2362 41.3379 71.4366 42.4649 71.0526 43.5067C71.2195 44.1792 74.6477 49.3571 76.5878 51.9466L76.6212 51.9969V54.3671C76.5711 54.2999 76.521 54.2328 76.4542 54.1657C76.4041 54.1992 73.6282 50.5511 73.4279 50.2646C71.9398 48.2637 70.9358 46.1118 69.7159 44.027C69.2473 43.9598 68.545 43.7416 67.9595 42.8665C67.0735 41.5885 66.2544 39.1176 65.5341 35.9898C64.7996 32.6966 64.1474 25.4507 68.4615 22.2558ZM101.17 8.15006C103.963 9.41126 103.077 16.3382 102.692 18.423C101.773 23.6009 99.6489 30.3768 96.4712 37.5903C96.0192 38.6321 95.5184 39.6919 95.0164 40.7685L94.9997 40.7853L93.8121 39.3562L93.8288 39.3227C94.2139 38.5158 94.5645 37.709 94.933 36.9022C98.0606 29.8074 100.134 23.1657 101.037 18.1221C101.889 13.3974 101.773 10.2037 100.568 9.59828C100.033 9.07678 98.5448 9.90039 97.0733 11.3474C96.0705 12.3389 93.7286 15.4163 91.4547 18.3919C89.1474 21.401 86.889 24.2926 85.5344 24.2591C84.0797 26.4781 82.7084 28.8998 81.4707 31.2364C80.6682 32.7326 79.8657 34.4313 79.0119 36.1289C77.9412 38.2976 76.955 40.4328 76.0858 42.5176C73.2931 49.1592 71.5534 55.1943 70.8678 59.7511C70.2322 63.9711 70.4326 66.762 71.5033 67.3003L71.52 67.3171C72.2724 67.6192 73.5102 67.1996 75.0818 66.1062C75.3989 65.8881 75.7507 65.6183 76.118 65.333C76.4864 65.0309 76.8537 64.7108 77.2221 64.3751C79.9313 61.8527 83.0745 57.9528 86.2188 53.0939L88.2424 53.0435C84.7975 58.4743 81.3359 62.8454 78.3597 65.6195C77.9412 66.0067 77.5572 66.3424 77.172 66.6625C76.7869 66.9646 76.4029 67.2511 76.0345 67.5197C73.9776 68.9319 72.1878 69.4199 70.9012 68.8984H70.8845C70.8511 68.8816 70.801 68.8648 70.7509 68.8312C68.9778 67.9405 68.4603 64.5106 69.2127 59.5173C69.9151 54.843 71.6882 48.6725 74.5476 41.881C75.4335 39.7794 76.4208 37.6107 77.5238 35.4084C78.3263 33.7947 79.229 32.2135 80.1161 30.5662C81.4373 28.0774 82.8586 25.8751 84.3468 23.5721C84.2466 23.1345 83.995 22.4116 84.5972 21.4034C85.4664 19.8737 87.6903 17.1834 90.3327 14.6275C92.3395 12.6937 94.5967 10.8451 96.6035 9.61746C98.478 8.41981 100.134 7.66213 101.17 8.15006Z" fill="#010935"></path></svg> 