<?xml version="1.0" encoding="UTF-8"?> <svg xmlns="http://www.w3.org/2000/svg" width="171" height="78" viewBox="0 0 171 78" fill="none"><path d="M120.061 18H52.0936C48.683 18 46 20.8136 46 24.3052V53.2777C46 56.7678 48.7928 59.4958 52.0936 59.4958H120.061C123.339 59.4958 126.287 56.6154 126.287 53.2777V24.3052C126.287 20.924 123.47 18 120.061 18ZM123.448 51.5326C123.448 54.9138 121.645 56.4194 118.258 56.4194H54.358C49.9594 56.4194 49.409 54.6526 49.409 51.5326V26.0503C49.409 22.8868 50.4863 21.0764 54.358 21.0764H118.28C121.843 21.0764 123.47 22.6255 123.47 26.0503V51.5326H123.448Z" fill="#010935"></path><path d="M87.5435 28.3594V28.3376L87.6752 26.0684C87.6752 25.4572 86.8175 24.3887 86.0256 24.3887C84.2882 24.2581 82.5946 24.1927 81.1206 24.3887C80.3507 24.454 79.5588 24.5411 79.3173 25.3266L78.4156 28.3376H76.3912L75.8408 30.8681H79.471L79.1856 32.2866C75.1822 32.2866 73.3789 34.4251 73.6423 36.5621C73.9716 39.1362 77.0514 40.0958 81.0547 39.6821L81.6271 36.4968H78.436C77.4026 36.4968 77.7978 35.4501 78.3702 35.2743L81.8451 35.2308L82.7687 30.8899H83.5167L81.8012 39.5515L85.1443 39.5079L86.6623 30.8899H87.7834L88.3338 28.3594H87.5435ZM84.1564 28.3594H82.1994L82.397 27.8788C82.4629 27.7482 82.5946 27.7917 82.7922 27.7917H83.7597C83.8914 27.7917 84.1784 27.9224 84.1784 27.9224V28.3594H84.1564Z" fill="#010935"></path><path d="M118.581 28.3674L118.756 26.0764C118.756 25.4869 117.921 24.3966 117.151 24.3966C115.347 24.3313 113.676 24.3313 112.246 24.3966C111.476 24.3966 110.706 24.5491 110.442 25.3345L109.541 28.3456H104.019L103.469 30.8761L103.711 30.9414C104.81 32.1639 104.106 33.6897 102.171 34.4098L101.203 36.3073L106.174 39.4925L107.911 37.2233L106.24 35.8049L106.328 35.6307H109.429L108.637 39.5579L111.981 39.4925L113.828 30.8745H114.686L112.97 39.5361L116.204 39.4925L118.029 30.8963H118.623L119.174 28.3658H118.581V28.3674ZM109.937 32.8622H107.385L108.198 30.8994H110.333L109.937 32.8622ZM115.15 28.3674H113.325L113.522 27.8868C113.588 27.7561 113.72 27.7997 113.917 27.7997H114.885C115.017 27.7997 115.214 28.0174 115.214 28.0174L115.15 28.3674Z" fill="#010935"></path><path d="M102.594 28.3674L102.77 26.0764C102.77 25.4652 101.934 24.3966 101.164 24.3966C99.1634 24.3313 97.5577 24.3313 96.2593 24.3966C95.4893 24.3966 94.7194 24.5491 94.456 25.3345L93.5543 28.3456H89.0899L88.5395 30.8761H89.1777C88.8045 32.8389 87.9452 35.654 88.5395 36.679C89.046 37.5951 90.1453 37.6386 91.3103 37.3991C91.9266 37.3338 92.4535 37.0071 93.2234 36.6136L92.6511 39.5159L95.9943 39.4723L97.8415 30.8761H98.6992L96.9837 39.5376L100.217 39.4941L102.064 30.8761H102.659L103.209 28.3456H102.593V28.3674H102.594ZM93.7754 33.8654C92.8079 34.2807 92.1477 33.9743 92.4112 33.2106L92.8298 30.8761H94.3697L93.7754 33.8654ZM99.1634 28.3674H97.3601L97.5577 27.8868C97.6235 27.7561 97.7552 27.7997 97.9528 27.7997H98.9203C99.0521 27.7997 99.2496 28.0174 99.2496 28.0174L99.1634 28.3674Z" fill="#010935"></path><path d="M74.8592 41.9108H86.4726L85.6368 45.8379H81.6773L79.9399 53.627H76.0902L77.4764 45.8379H74.0234L74.8592 41.9108Z" fill="#010935"></path><path d="M94.4121 41.8206H87.7257L85.3281 53.6021H89.3315L89.9477 51.0716H94.017C97.0747 51.0716 98.8342 49.1523 98.8342 45.7477C98.8342 43.7616 96.2609 41.8206 94.4121 41.8206ZM93.9731 46.9686C93.9072 46.9686 93.7535 47.1428 93.2031 47.1428H90.8714L91.2665 45.7462H93.1576C94.1471 45.7462 94.5438 45.8986 94.5438 46.3139C94.5438 46.642 94.2145 46.9686 93.9731 46.9686Z" fill="#010935"></path><path d="M60.1852 41.9108H64.8926L68.0147 48.2813L69.2472 41.9108H73.514L70.831 53.627H66.0797L63.0219 48.0418L62.0983 53.627H57.7656L60.1852 41.9108Z" fill="#010935"></path><path d="M114.253 48.8504C113.681 51.3592 110.69 53.3888 107.17 53.3888C103.145 53.3888 99.8672 50.7712 99.8672 47.6077C99.8672 44.4442 103.123 41.7831 107.17 41.7831C110.733 41.7831 113.768 43.8781 114.363 46.6046L109.458 46.6699C109.128 45.9715 108.225 45.4039 107.17 45.4039C105.762 45.4039 104.619 46.407 104.619 47.5642C104.619 48.7416 105.74 49.7245 107.17 49.7245C107.94 49.7245 108.666 49.4197 109.127 48.9391L114.253 48.8504Z" fill="#010935"></path><path d="M54.1383 30.8496L53.0391 37.2202L59.0433 40.7103L60.5832 38.1363L57.1083 35.4533L57.988 30.8496H59.6376C59.8572 32.8575 59.4181 34.2962 58.3392 35.3662L60.1425 36.7194C61.7922 35.7597 62.9353 33.9042 63.4638 30.8512H70.3273L69.8209 32.9026L63.6833 32.9679L63.1768 35.6509C63.6833 36.6323 64.2761 37.483 65.3769 37.7241C65.8394 37.8547 66.6752 37.4846 67.1143 36.6338C67.246 36.3943 67.3778 35.9573 67.4436 35.6524H69.1591L68.1916 39.536H71.7982L73.9544 30.8527H74.9438L75.4942 28.344H54.0944L53.544 30.8527L54.1383 30.8496Z" fill="#010935"></path></svg> 